<?xml version="1.0" encoding="UTF-8"?>
<svg width="500px" height="500px" viewBox="0 0 500 500" version="1.1" xmlns="http://www.w3.org/2000/svg" xmlns:xlink="http://www.w3.org/1999/xlink">
    <!-- Generator: Sketch 51.3 (57544) - http://www.bohemiancoding.com/sketch -->
    <title>Artboard</title>
    <desc>Created with Sketch.</desc>
    <defs></defs>
    <g id="Artboard" stroke="none" stroke-width="1" fill="none" fill-rule="evenodd">
        <rect fill="#FCFCFC" x="0" y="0" width="500" height="500"></rect>
        <g id="Looper_Group" transform="translate(-139.000000, -130.000000)" opacity="0.99" stroke="#F13E8E">
            <g id="original_Rectangle_9757499-Group">
                <rect id="duplicate_100_original_Rectangle_9757499" transform="translate(389.000000, 380.000000) rotate(356.400000) translate(-389.000000, -380.000000) " x="67" y="104.432602" width="644" height="551.134796"></rect>
                <rect id="duplicate_99_original_Rectangle_9757499" transform="translate(389.000000, 380.000000) rotate(352.800000) translate(-389.000000, -380.000000) " x="70" y="106.931962" width="638" height="546.136076"></rect>
                <rect id="duplicate_98_original_Rectangle_9757499" transform="translate(389.000000, 380.000000) rotate(349.200000) translate(-389.000000, -380.000000) " x="73" y="109.43131" width="632" height="541.13738"></rect>
                <rect id="duplicate_97_original_Rectangle_9757499" transform="translate(389.000000, 380.000000) rotate(345.600000) translate(-389.000000, -380.000000) " x="76" y="111.930645" width="626" height="536.13871"></rect>
                <rect id="duplicate_96_original_Rectangle_9757499" transform="translate(389.000000, 380.000000) rotate(342.000000) translate(-389.000000, -380.000000) " x="79" y="114.429967" width="620" height="531.140065"></rect>
                <rect id="duplicate_95_original_Rectangle_9757499" transform="translate(389.000000, 380.000000) rotate(338.400000) translate(-389.000000, -380.000000) " x="82" y="116.929276" width="614" height="526.141447"></rect>
                <rect id="duplicate_94_original_Rectangle_9757499" transform="translate(389.000000, 380.000000) rotate(334.800000) translate(-389.000000, -380.000000) " x="85" y="119.428571" width="608" height="521.142857"></rect>
                <rect id="duplicate_93_original_Rectangle_9757499" transform="translate(389.000000, 380.000000) rotate(331.200000) translate(-389.000000, -380.000000) " x="88" y="121.927852" width="602" height="516.144295"></rect>
                <rect id="duplicate_92_original_Rectangle_9757499" transform="translate(389.000000, 380.000000) rotate(327.600000) translate(-389.000000, -380.000000) " x="91" y="124.427119" width="596" height="511.145763"></rect>
                <rect id="duplicate_91_original_Rectangle_9757499" transform="translate(389.000000, 380.000000) rotate(324.000000) translate(-389.000000, -380.000000) " x="94" y="126.92637" width="590" height="506.14726"></rect>
                <rect id="duplicate_90_original_Rectangle_9757499" transform="translate(389.000000, 380.000000) rotate(320.400000) translate(-389.000000, -380.000000) " x="97" y="129.425606" width="584" height="501.148789"></rect>
                <rect id="duplicate_89_original_Rectangle_9757499" transform="translate(389.000000, 380.000000) rotate(316.800000) translate(-389.000000, -380.000000) " x="100" y="131.924825" width="578" height="496.15035"></rect>
                <rect id="duplicate_88_original_Rectangle_9757499" transform="translate(389.000000, 380.000000) rotate(313.200000) translate(-389.000000, -380.000000) " x="103" y="134.424028" width="572" height="491.151943"></rect>
                <rect id="duplicate_87_original_Rectangle_9757499" transform="translate(389.000000, 380.000000) rotate(309.600000) translate(-389.000000, -380.000000) " x="106" y="136.923214" width="566" height="486.153571"></rect>
                <rect id="duplicate_86_original_Rectangle_9757499" transform="translate(389.000000, 380.000000) rotate(306.000000) translate(-389.000000, -380.000000) " x="109" y="139.422383" width="560" height="481.155235"></rect>
                <rect id="duplicate_85_original_Rectangle_9757499" transform="translate(389.000000, 380.000000) rotate(302.400000) translate(-389.000000, -380.000000) " x="112" y="141.921533" width="554" height="476.156934"></rect>
                <rect id="duplicate_84_original_Rectangle_9757499" transform="translate(389.000000, 380.000000) rotate(298.800000) translate(-389.000000, -380.000000) " x="115" y="144.420664" width="548" height="471.158672"></rect>
                <rect id="duplicate_83_original_Rectangle_9757499" transform="translate(389.000000, 380.000000) rotate(295.200000) translate(-389.000000, -380.000000) " x="118" y="146.919776" width="542" height="466.160448"></rect>
                <rect id="duplicate_82_original_Rectangle_9757499" transform="translate(389.000000, 380.000000) rotate(291.600000) translate(-389.000000, -380.000000) " x="121" y="149.418868" width="536" height="461.162264"></rect>
                <rect id="duplicate_81_original_Rectangle_9757499" transform="translate(389.000000, 380.000000) rotate(288.000000) translate(-389.000000, -380.000000) " x="124" y="151.917939" width="530" height="456.164122"></rect>
                <rect id="duplicate_80_original_Rectangle_9757499" transform="translate(389.000000, 380.000000) rotate(284.400000) translate(-389.000000, -380.000000) " x="127" y="154.416988" width="524" height="451.166023"></rect>
                <rect id="duplicate_79_original_Rectangle_9757499" transform="translate(389.000000, 380.000000) rotate(280.800000) translate(-389.000000, -380.000000) " x="130" y="156.916016" width="518" height="446.167969"></rect>
                <rect id="duplicate_78_original_Rectangle_9757499" transform="translate(389.000000, 380.000000) rotate(277.200000) translate(-389.000000, -380.000000) " x="133" y="159.41502" width="512" height="441.16996"></rect>
                <rect id="duplicate_77_original_Rectangle_9757499" transform="translate(389.000000, 380.000000) rotate(273.600000) translate(-389.000000, -380.000000) " x="136" y="161.914" width="506" height="436.172"></rect>
                <rect id="duplicate_76_original_Rectangle_9757499" transform="translate(389.000000, 380.000000) rotate(270.000000) translate(-389.000000, -380.000000) " x="139" y="164.412955" width="500" height="431.174089"></rect>
                <rect id="duplicate_75_original_Rectangle_9757499" transform="translate(389.000000, 380.000000) rotate(266.400000) translate(-389.000000, -380.000000) " x="142" y="166.911885" width="494" height="426.17623"></rect>
                <rect id="duplicate_74_original_Rectangle_9757499" transform="translate(389.000000, 380.000000) rotate(262.800000) translate(-389.000000, -380.000000) " x="145" y="169.410788" width="488" height="421.178423"></rect>
                <rect id="duplicate_73_original_Rectangle_9757499" transform="translate(389.000000, 380.000000) rotate(259.200000) translate(-389.000000, -380.000000) " x="148" y="171.909664" width="482" height="416.180672"></rect>
                <rect id="duplicate_72_original_Rectangle_9757499" transform="translate(389.000000, 380.000000) rotate(255.600000) translate(-389.000000, -380.000000) " x="151" y="174.408511" width="476" height="411.182979"></rect>
                <rect id="duplicate_71_original_Rectangle_9757499" transform="translate(389.000000, 380.000000) rotate(252.000000) translate(-389.000000, -380.000000) " x="154" y="176.907328" width="470" height="406.185345"></rect>
                <rect id="duplicate_70_original_Rectangle_9757499" transform="translate(389.000000, 380.000000) rotate(248.400000) translate(-389.000000, -380.000000) " x="157" y="179.406114" width="464" height="401.187773"></rect>
                <rect id="duplicate_69_original_Rectangle_9757499" transform="translate(389.000000, 380.000000) rotate(244.800000) translate(-389.000000, -380.000000) " x="160" y="181.904867" width="458" height="396.190265"></rect>
                <rect id="duplicate_68_original_Rectangle_9757499" transform="translate(389.000000, 380.000000) rotate(241.200000) translate(-389.000000, -380.000000) " x="163" y="184.403587" width="452" height="391.192825"></rect>
                <rect id="duplicate_67_original_Rectangle_9757499" transform="translate(389.000000, 380.000000) rotate(237.600000) translate(-389.000000, -380.000000) " x="166" y="186.902273" width="446" height="386.195455"></rect>
                <rect id="duplicate_66_original_Rectangle_9757499" transform="translate(389.000000, 380.000000) rotate(234.000000) translate(-389.000000, -380.000000) " x="169" y="189.400922" width="440" height="381.198157"></rect>
                <rect id="duplicate_65_original_Rectangle_9757499" transform="translate(389.000000, 380.000000) rotate(230.400000) translate(-389.000000, -380.000000) " x="172" y="191.899533" width="434" height="376.200935"></rect>
                <rect id="duplicate_64_original_Rectangle_9757499" transform="translate(389.000000, 380.000000) rotate(226.800000) translate(-389.000000, -380.000000) " x="175" y="194.398104" width="428" height="371.203791"></rect>
                <rect id="duplicate_63_original_Rectangle_9757499" transform="translate(389.000000, 380.000000) rotate(223.200000) translate(-389.000000, -380.000000) " x="178" y="196.896635" width="422" height="366.206731"></rect>
                <rect id="duplicate_62_original_Rectangle_9757499" transform="translate(389.000000, 380.000000) rotate(219.600000) translate(-389.000000, -380.000000) " x="181" y="199.395122" width="416" height="361.209756"></rect>
                <rect id="duplicate_61_original_Rectangle_9757499" transform="translate(389.000000, 380.000000) rotate(216.000000) translate(-389.000000, -380.000000) " x="184" y="201.893564" width="410" height="356.212871"></rect>
                <rect id="duplicate_60_original_Rectangle_9757499" transform="translate(389.000000, 380.000000) rotate(212.400000) translate(-389.000000, -380.000000) " x="187" y="204.39196" width="404" height="351.21608"></rect>
                <rect id="duplicate_59_original_Rectangle_9757499" transform="translate(389.000000, 380.000000) rotate(208.800000) translate(-389.000000, -380.000000) " x="190" y="206.890306" width="398" height="346.219388"></rect>
                <rect id="duplicate_58_original_Rectangle_9757499" transform="translate(389.000000, 380.000000) rotate(205.200000) translate(-389.000000, -380.000000) " x="193" y="209.388601" width="392" height="341.222798"></rect>
                <rect id="duplicate_57_original_Rectangle_9757499" transform="translate(389.000000, 380.000000) rotate(201.600000) translate(-389.000000, -380.000000) " x="196" y="211.886842" width="386" height="336.226316"></rect>
                <rect id="duplicate_56_original_Rectangle_9757499" transform="translate(389.000000, 380.000000) rotate(198.000000) translate(-389.000000, -380.000000) " x="199" y="214.385027" width="380" height="331.229947"></rect>
                <rect id="duplicate_55_original_Rectangle_9757499" transform="translate(389.000000, 380.000000) rotate(194.400000) translate(-389.000000, -380.000000) " x="202" y="216.883152" width="374" height="326.233696"></rect>
                <rect id="duplicate_54_original_Rectangle_9757499" transform="translate(389.000000, 380.000000) rotate(190.800000) translate(-389.000000, -380.000000) " x="205" y="219.381215" width="368" height="321.237569"></rect>
                <rect id="duplicate_53_original_Rectangle_9757499" transform="translate(389.000000, 380.000000) rotate(187.200000) translate(-389.000000, -380.000000) " x="208" y="221.879213" width="362" height="316.241573"></rect>
                <rect id="duplicate_52_original_Rectangle_9757499" transform="translate(389.000000, 380.000000) rotate(183.600000) translate(-389.000000, -380.000000) " x="211" y="224.377143" width="356" height="311.245714"></rect>
                <rect id="duplicate_51_original_Rectangle_9757499" transform="translate(389.000000, 380.000000) rotate(180.000000) translate(-389.000000, -380.000000) " x="214" y="226.875" width="350" height="306.25"></rect>
                <rect id="duplicate_50_original_Rectangle_9757499" transform="translate(389.000000, 380.000000) rotate(176.400000) translate(-389.000000, -380.000000) " x="217" y="229.372781" width="344" height="301.254438"></rect>
                <rect id="duplicate_49_original_Rectangle_9757499" transform="translate(389.000000, 380.000000) rotate(172.800000) translate(-389.000000, -380.000000) " x="220" y="231.870482" width="338" height="296.259036"></rect>
                <rect id="duplicate_48_original_Rectangle_9757499" transform="translate(389.000000, 380.000000) rotate(169.200000) translate(-389.000000, -380.000000) " x="223" y="234.368098" width="332" height="291.263804"></rect>
                <rect id="duplicate_47_original_Rectangle_9757499" transform="translate(389.000000, 380.000000) rotate(165.600000) translate(-389.000000, -380.000000) " x="226" y="236.865625" width="326" height="286.26875"></rect>
                <rect id="duplicate_46_original_Rectangle_9757499" transform="translate(389.000000, 380.000000) rotate(162.000000) translate(-389.000000, -380.000000) " x="229" y="239.363057" width="320" height="281.273885"></rect>
                <rect id="duplicate_45_original_Rectangle_9757499" transform="translate(389.000000, 380.000000) rotate(158.400000) translate(-389.000000, -380.000000) " x="232" y="241.86039" width="314" height="276.279221"></rect>
                <rect id="duplicate_44_original_Rectangle_9757499" transform="translate(389.000000, 380.000000) rotate(154.800000) translate(-389.000000, -380.000000) " x="235" y="244.357616" width="308" height="271.284768"></rect>
                <rect id="duplicate_43_original_Rectangle_9757499" transform="translate(389.000000, 380.000000) rotate(151.200000) translate(-389.000000, -380.000000) " x="238" y="246.85473" width="302" height="266.290541"></rect>
                <rect id="duplicate_42_original_Rectangle_9757499" transform="translate(389.000000, 380.000000) rotate(147.600000) translate(-389.000000, -380.000000) " x="241" y="249.351724" width="296" height="261.296552"></rect>
                <rect id="duplicate_41_original_Rectangle_9757499" transform="translate(389.000000, 380.000000) rotate(144.000000) translate(-389.000000, -380.000000) " x="244" y="251.848592" width="290" height="256.302817"></rect>
                <rect id="duplicate_40_original_Rectangle_9757499" transform="translate(389.000000, 380.000000) rotate(140.400000) translate(-389.000000, -380.000000) " x="247" y="254.345324" width="284" height="251.309353"></rect>
                <rect id="duplicate_39_original_Rectangle_9757499" transform="translate(389.000000, 380.000000) rotate(136.800000) translate(-389.000000, -380.000000) " x="250" y="256.841912" width="278" height="246.316176"></rect>
                <rect id="duplicate_38_original_Rectangle_9757499" transform="translate(389.000000, 380.000000) rotate(133.200000) translate(-389.000000, -380.000000) " x="253" y="259.338346" width="272" height="241.323308"></rect>
                <rect id="duplicate_37_original_Rectangle_9757499" transform="translate(389.000000, 380.000000) rotate(129.600000) translate(-389.000000, -380.000000) " x="256" y="261.834615" width="266" height="236.330769"></rect>
                <rect id="duplicate_36_original_Rectangle_9757499" transform="translate(389.000000, 380.000000) rotate(126.000000) translate(-389.000000, -380.000000) " x="259" y="264.330709" width="260" height="231.338583"></rect>
                <rect id="duplicate_35_original_Rectangle_9757499" transform="translate(389.000000, 380.000000) rotate(122.400000) translate(-389.000000, -380.000000) " x="262" y="266.826613" width="254" height="226.346774"></rect>
                <rect id="duplicate_34_original_Rectangle_9757499" transform="translate(389.000000, 380.000000) rotate(118.800000) translate(-389.000000, -380.000000) " x="265" y="269.322314" width="248" height="221.355372"></rect>
                <rect id="duplicate_33_original_Rectangle_9757499" transform="translate(389.000000, 380.000000) rotate(115.200000) translate(-389.000000, -380.000000) " x="268" y="271.817797" width="242" height="216.364407"></rect>
                <rect id="duplicate_32_original_Rectangle_9757499" transform="translate(389.000000, 380.000000) rotate(111.600000) translate(-389.000000, -380.000000) " x="271" y="274.313043" width="236" height="211.373913"></rect>
                <rect id="duplicate_31_original_Rectangle_9757499" transform="translate(389.000000, 380.000000) rotate(108.000000) translate(-389.000000, -380.000000) " x="274" y="276.808036" width="230" height="206.383929"></rect>
                <rect id="duplicate_30_original_Rectangle_9757499" transform="translate(389.000000, 380.000000) rotate(104.400000) translate(-389.000000, -380.000000) " x="277" y="279.302752" width="224" height="201.394495"></rect>
                <rect id="duplicate_29_original_Rectangle_9757499" transform="translate(389.000000, 380.000000) rotate(100.800000) translate(-389.000000, -380.000000) " x="280" y="281.79717" width="218" height="196.40566"></rect>
                <rect id="duplicate_28_original_Rectangle_9757499" transform="translate(389.000000, 380.000000) rotate(97.200000) translate(-389.000000, -380.000000) " x="283" y="284.291262" width="212" height="191.417476"></rect>
                <rect id="duplicate_27_original_Rectangle_9757499" transform="translate(389.000000, 380.000000) rotate(93.600000) translate(-389.000000, -380.000000) " x="286" y="286.785" width="206" height="186.43"></rect>
                <rect id="duplicate_26_original_Rectangle_9757499" transform="translate(389.000000, 380.000000) rotate(90.000000) translate(-389.000000, -380.000000) " x="289" y="289.278351" width="200" height="181.443299"></rect>
                <rect id="duplicate_25_original_Rectangle_9757499" transform="translate(389.000000, 380.000000) rotate(86.400000) translate(-389.000000, -380.000000) " x="292" y="291.771277" width="194" height="176.457447"></rect>
                <rect id="duplicate_24_original_Rectangle_9757499" transform="translate(389.000000, 380.000000) rotate(82.800000) translate(-389.000000, -380.000000) " x="295" y="294.263736" width="188" height="171.472527"></rect>
                <rect id="duplicate_23_original_Rectangle_9757499" transform="translate(389.000000, 380.000000) rotate(79.200000) translate(-389.000000, -380.000000) " x="298" y="296.755682" width="182" height="166.488636"></rect>
                <rect id="duplicate_22_original_Rectangle_9757499" transform="translate(389.000000, 380.000000) rotate(75.600000) translate(-389.000000, -380.000000) " x="301" y="299.247059" width="176" height="161.505882"></rect>
                <rect id="duplicate_21_original_Rectangle_9757499" transform="translate(389.000000, 380.000000) rotate(72.000000) translate(-389.000000, -380.000000) " x="304" y="301.737805" width="170" height="156.52439"></rect>
                <rect id="duplicate_20_original_Rectangle_9757499" transform="translate(389.000000, 380.000000) rotate(68.400000) translate(-389.000000, -380.000000) " x="307" y="304.227848" width="164" height="151.544304"></rect>
                <rect id="duplicate_19_original_Rectangle_9757499" transform="translate(389.000000, 380.000000) rotate(64.800000) translate(-389.000000, -380.000000) " x="310" y="306.717105" width="158" height="146.565789"></rect>
                <rect id="duplicate_18_original_Rectangle_9757499" transform="translate(389.000000, 380.000000) rotate(61.200000) translate(-389.000000, -380.000000) " x="313" y="309.205479" width="152" height="141.589041"></rect>
                <rect id="duplicate_17_original_Rectangle_9757499" transform="translate(389.000000, 380.000000) rotate(57.600000) translate(-389.000000, -380.000000) " x="316" y="311.692857" width="146" height="136.614286"></rect>
                <rect id="duplicate_16_original_Rectangle_9757499" transform="translate(389.000000, 380.000000) rotate(54.000000) translate(-389.000000, -380.000000) " x="319" y="314.179104" width="140" height="131.641791"></rect>
                <rect id="duplicate_15_original_Rectangle_9757499" transform="translate(389.000000, 380.000000) rotate(50.400000) translate(-389.000000, -380.000000) " x="322" y="316.664062" width="134" height="126.671875"></rect>
                <rect id="duplicate_14_original_Rectangle_9757499" transform="translate(389.000000, 380.000000) rotate(46.800000) translate(-389.000000, -380.000000) " x="325" y="319.147541" width="128" height="121.704918"></rect>
                <rect id="duplicate_13_original_Rectangle_9757499" transform="translate(389.000000, 380.000000) rotate(43.200000) translate(-389.000000, -380.000000) " x="328" y="321.62931" width="122" height="116.741379"></rect>
                <rect id="duplicate_12_original_Rectangle_9757499" transform="translate(389.000000, 380.000000) rotate(39.600000) translate(-389.000000, -380.000000) " x="331" y="324.109091" width="116" height="111.781818"></rect>
                <rect id="duplicate_11_original_Rectangle_9757499" transform="translate(389.000000, 380.000000) rotate(36.000000) translate(-389.000000, -380.000000) " x="334" y="326.586538" width="110" height="106.826923"></rect>
                <rect id="duplicate_10_original_Rectangle_9757499" transform="translate(389.000000, 380.000000) rotate(32.400000) translate(-389.000000, -380.000000) " x="337" y="329.061224" width="104" height="101.877551"></rect>
                <rect id="duplicate_9_original_Rectangle_9757499" transform="translate(389.000000, 380.000000) rotate(28.800000) translate(-389.000000, -380.000000) " x="340" y="331.532609" width="98" height="96.9347826"></rect>
                <rect id="duplicate_8_original_Rectangle_9757499" transform="translate(389.000000, 380.000000) rotate(25.200000) translate(-389.000000, -380.000000) " x="343" y="334" width="92" height="92"></rect>
                <rect id="duplicate_7_original_Rectangle_9757499" transform="translate(389.000000, 380.000000) rotate(21.600000) translate(-389.000000, -380.000000) " x="346" y="337" width="86" height="86"></rect>
                <rect id="duplicate_6_original_Rectangle_9757499" transform="translate(389.000000, 380.000000) rotate(18.000000) translate(-389.000000, -380.000000) " x="349" y="340" width="80" height="80"></rect>
                <rect id="duplicate_5_original_Rectangle_9757499" transform="translate(389.000000, 380.000000) rotate(14.400000) translate(-389.000000, -380.000000) " x="352" y="343" width="74" height="74"></rect>
                <rect id="duplicate_4_original_Rectangle_9757499" transform="translate(389.000000, 380.000000) rotate(10.800000) translate(-389.000000, -380.000000) " x="355" y="346" width="68" height="68"></rect>
                <rect id="duplicate_3_original_Rectangle_9757499" transform="translate(389.000000, 380.000000) rotate(7.200000) translate(-389.000000, -380.000000) " x="358" y="349" width="62" height="62"></rect>
                <rect id="duplicate_2_original_Rectangle_9757499" transform="translate(389.000000, 380.000000) rotate(3.600000) translate(-389.000000, -380.000000) " x="361" y="352" width="56" height="56"></rect>
                <rect id="duplicate_1_original_Rectangle_9757499" x="364" y="355" width="50" height="50"></rect>
            </g>
        </g>
    </g>
</svg>