<svg version="1.1" xmlns="http://www.w3.org/2000/svg" xmlns:xlink="http://www.w3.org/1999/xlink" width="956" height="478"><g fill="none" fill-rule="nonzero" stroke="#000000" stroke-width="1" stroke-linecap="butt" stroke-linejoin="miter" stroke-miterlimit="10" stroke-dasharray="" stroke-dashoffset="0" font-family="none" font-weight="none" font-size="none" text-anchor="none" style="mix-blend-mode: normal"><path d="M106,279c5.96945,-1.47442 11.9389,-2.94883 20,-5c8.0611,-2.05117 18.21387,-4.67909 28,-7c9.78613,-2.32091 19.20564,-4.3348 30,-6c10.79436,-1.6652 22.96358,-2.98169 34,-4c11.03642,-1.01831 20.94004,-1.73842 33,-2c12.05996,-0.26158 26.27626,-0.06462 36,0c9.72374,0.06462 14.95493,-0.00308 21,0c6.04507,0.00308 12.90404,0.07694 20,0c7.09596,-0.07694 14.42893,-0.3047 22,0c7.57107,0.3047 15.38024,1.14184 22,3c6.61976,1.85816 12.0501,4.73732 19,9c6.9499,4.26268 15.41936,9.90887 23,15c7.58064,5.09113 14.27245,9.6272 21,15c6.72755,5.3728 13.49085,11.58232 20,17c6.50915,5.41768 12.76416,10.04352 18,14c5.23584,3.95648 9.45252,7.24359 16,12c6.54748,4.75641 15.42575,10.9821 22,16c6.57425,5.0179 10.84448,8.828 16,13c5.15552,4.172 11.19632,8.7059 19,12c7.80368,3.2941 17.37022,5.34841 25,6c7.62978,0.65159 13.32279,-0.09955 20,-1c6.67721,-0.90045 14.3386,-1.95023 22,-3c7.6614,-1.04977 13.8307,-3.02489 20,-5"/><path d="M146,181c7.33589,-0.91136 14.67179,-1.82273 24,-3c9.32821,-1.17727 20.64874,-2.62046 31,-4c10.35126,-1.37954 19.73325,-2.69545 30,-4c10.26675,-1.30455 21.41828,-2.59776 32,-4c10.58172,-1.40224 20.59365,-2.91353 30,-4c9.40635,-1.08647 18.20714,-1.74812 28,-2c9.79286,-0.25188 20.57779,-0.094 30,0c9.42221,0.094 17.4817,0.12414 28,0c10.5183,-0.12414 23.49542,-0.40254 33,0c9.50458,0.40254 15.53663,1.48601 22,3c6.46337,1.51399 13.35807,3.45849 20,6c6.64193,2.54151 13.03108,5.68001 19,9c5.96892,3.31999 11.51762,6.82146 18,11c6.48238,4.17854 13.89846,9.03415 21,14c7.10154,4.96585 13.88854,10.04193 20,14c6.11146,3.95807 11.54738,6.79814 17,11c5.45262,4.20186 10.92195,9.76551 17,15c6.07805,5.23449 12.76481,10.13981 19,14c6.23519,3.86019 12.01882,6.67524 18,10c5.98118,3.32476 12.1599,7.15921 19,10c6.8401,2.84079 14.34156,4.6879 21,7c6.65844,2.3121 12.47384,5.08917 19,7c6.52616,1.91083 13.76308,2.95541 21,4c7.23692,1.04459 13.61846,1.02229 20,1"/><path d="M186,97c12.44291,-3.03816 24.88581,-6.07632 34,-8c9.11419,-1.92368 14.89966,-2.73289 22,-4c7.10034,-1.26711 15.51556,-2.99213 25,-5c9.48444,-2.00787 20.03811,-4.29859 30,-6c9.96189,-1.70141 19.332,-2.81351 28,-4c8.668,-1.18649 16.63389,-2.44738 28,-4c11.36611,-1.55262 26.13243,-3.39699 35,-4c8.86757,-0.60301 11.83638,0.03532 20,0c8.16362,-0.03532 21.52205,-0.7443 33,-1c11.47795,-0.2557 21.07543,-0.05813 31,0c9.92457,0.05813 20.17624,-0.02318 28,0c7.82376,0.02318 13.21961,0.15084 20,0c6.78039,-0.15084 14.94533,-0.58018 23,1c8.05467,1.58018 15.99905,5.16987 23,9c7.00095,3.83013 13.05845,7.9007 20,12c6.94155,4.0993 14.76716,8.22732 21,12c6.23284,3.77268 10.8729,7.19001 18,12c7.1271,4.80999 16.74124,11.01262 24,16c7.25876,4.98738 12.16214,8.7595 18,12c5.83786,3.2405 12.61019,5.94936 20,10c7.38981,4.05064 15.39709,9.44304 23,14c7.60291,4.55696 14.80146,8.27848 22,12c7.19854,3.72152 14.59927,4.36076 22,5"/></g></svg>